{
    "asset" : {
        "generator" : "Khronos glTF Blender I/O v3.2.40",
        "version" : "2.0"
    },
    "scene" : 0,
    "scenes" : [
        {
            "name" : "Scene",
            "nodes" : [
                0
            ]
        }
    ],
    "nodes" : [
        {
            "mesh" : 0,
            "name" : "Luta_livre",
            "translation" : [
                0,
                4.141451835632324,
                -0.07939125597476959
            ]
        }
    ],
    "animations" : [
        {
            "channels" : [
                {
                    "sampler" : 0,
                    "target" : {
                        "node" : 0,
                        "path" : "translation"
                    }
                },
                {
                    "sampler" : 1,
                    "target" : {
                        "node" : 0,
                        "path" : "rotation"
                    }
                },
                {
                    "sampler" : 2,
                    "target" : {
                        "node" : 0,
                        "path" : "scale"
                    }
                }
            ],
            "name" : "Luta_livre",
            "samplers" : [
                {
                    "input" : 15,
                    "interpolation" : "LINEAR",
                    "output" : 16
                },
                {
                    "input" : 15,
                    "interpolation" : "LINEAR",
                    "output" : 17
                },
                {
                    "input" : 15,
                    "interpolation" : "LINEAR",
                    "output" : 18
                }
            ]
        }
    ],
    "materials" : [
        {
            "doubleSided" : true,
            "name" : "Cabeza_Luta",
            "pbrMetallicRoughness" : {}
        },
        {
            "doubleSided" : true,
            "name" : "Cuerpo_luta",
            "pbrMetallicRoughness" : {
                "baseColorTexture" : {
                    "index" : 0
                },
                "metallicFactor" : 0
            }
        },
        {
            "doubleSided" : true,
            "name" : "Red",
            "pbrMetallicRoughness" : {
                "baseColorFactor" : [
                    0.8000000715255737,
                    0.0015946569619700313,
                    0,
                    1
                ],
                "metallicFactor" : 0,
                "roughnessFactor" : 0.5
            }
        }
    ],
    "meshes" : [
        {
            "name" : "Cube.014",
            "primitives" : [
                {
                    "attributes" : {
                        "POSITION" : 0,
                        "NORMAL" : 1,
                        "TEXCOORD_0" : 2,
                        "COLOR_0" : 3
                    },
                    "indices" : 4,
                    "material" : 0
                },
                {
                    "attributes" : {
                        "POSITION" : 5,
                        "NORMAL" : 6,
                        "TEXCOORD_0" : 7,
                        "COLOR_0" : 8
                    },
                    "indices" : 9,
                    "material" : 1
                },
                {
                    "attributes" : {
                        "POSITION" : 10,
                        "NORMAL" : 11,
                        "TEXCOORD_0" : 12,
                        "COLOR_0" : 13
                    },
                    "indices" : 14,
                    "material" : 2
                }
            ]
        }
    ],
    "textures" : [
        {
            "sampler" : 0,
            "source" : 0
        }
    ],
    "images" : [
        {
            "mimeType" : "image/jpeg",
            "name" : "Luta_livre_cuerpo",
            "uri" : "Luta_livre_cuerpo.jpg"
        }
    ],
    "accessors" : [
        {
            "bufferView" : 0,
            "componentType" : 5126,
            "count" : 87956,
            "max" : [
                1.3489127159118652,
                1.5069997310638428,
                1.0089303255081177
            ],
            "min" : [
                -1.3480470180511475,
                -0.7969242334365845,
                -1.5201982259750366
            ],
            "type" : "VEC3"
        },
        {
            "bufferView" : 1,
            "componentType" : 5126,
            "count" : 87956,
            "type" : "VEC3"
        },
        {
            "bufferView" : 2,
            "componentType" : 5126,
            "count" : 87956,
            "type" : "VEC2"
        },
        {
            "bufferView" : 3,
            "componentType" : 5123,
            "count" : 87956,
            "normalized" : true,
            "type" : "VEC4"
        },
        {
            "bufferView" : 4,
            "componentType" : 5125,
            "count" : 92220,
            "type" : "SCALAR"
        },
        {
            "bufferView" : 5,
            "componentType" : 5126,
            "count" : 88896,
            "max" : [
                2.6693484783172607,
                0.030115723609924316,
                2.814906597137451
            ],
            "min" : [
                -2.643259048461914,
                -7.697816371917725,
                -1.8055894374847412
            ],
            "type" : "VEC3"
        },
        {
            "bufferView" : 6,
            "componentType" : 5126,
            "count" : 88896,
            "type" : "VEC3"
        },
        {
            "bufferView" : 7,
            "componentType" : 5126,
            "count" : 88896,
            "type" : "VEC2"
        },
        {
            "bufferView" : 8,
            "componentType" : 5123,
            "count" : 88896,
            "normalized" : true,
            "type" : "VEC4"
        },
        {
            "bufferView" : 9,
            "componentType" : 5125,
            "count" : 89202,
            "type" : "SCALAR"
        },
        {
            "bufferView" : 10,
            "componentType" : 5126,
            "count" : 15344,
            "max" : [
                2.5436787605285645,
                -3.326544761657715,
                2.289067268371582
            ],
            "min" : [
                -2.9572465419769287,
                -5.091673374176025,
                2.2007534503936768
            ],
            "type" : "VEC3"
        },
        {
            "bufferView" : 11,
            "componentType" : 5126,
            "count" : 15344,
            "type" : "VEC3"
        },
        {
            "bufferView" : 12,
            "componentType" : 5126,
            "count" : 15344,
            "type" : "VEC2"
        },
        {
            "bufferView" : 13,
            "componentType" : 5123,
            "count" : 15344,
            "normalized" : true,
            "type" : "VEC4"
        },
        {
            "bufferView" : 14,
            "componentType" : 5123,
            "count" : 17628,
            "type" : "SCALAR"
        },
        {
            "bufferView" : 15,
            "componentType" : 5126,
            "count" : 320,
            "max" : [
                5.316666666666666
            ],
            "min" : [
                0
            ],
            "type" : "SCALAR"
        },
        {
            "bufferView" : 16,
            "componentType" : 5126,
            "count" : 320,
            "type" : "VEC3"
        },
        {
            "bufferView" : 17,
            "componentType" : 5126,
            "count" : 320,
            "type" : "VEC4"
        },
        {
            "bufferView" : 18,
            "componentType" : 5126,
            "count" : 320,
            "type" : "VEC3"
        }
    ],
    "bufferViews" : [
        {
            "buffer" : 0,
            "byteLength" : 1055472,
            "byteOffset" : 0
        },
        {
            "buffer" : 0,
            "byteLength" : 1055472,
            "byteOffset" : 1055472
        },
        {
            "buffer" : 0,
            "byteLength" : 703648,
            "byteOffset" : 2110944
        },
        {
            "buffer" : 0,
            "byteLength" : 703648,
            "byteOffset" : 2814592
        },
        {
            "buffer" : 0,
            "byteLength" : 368880,
            "byteOffset" : 3518240
        },
        {
            "buffer" : 0,
            "byteLength" : 1066752,
            "byteOffset" : 3887120
        },
        {
            "buffer" : 0,
            "byteLength" : 1066752,
            "byteOffset" : 4953872
        },
        {
            "buffer" : 0,
            "byteLength" : 711168,
            "byteOffset" : 6020624
        },
        {
            "buffer" : 0,
            "byteLength" : 711168,
            "byteOffset" : 6731792
        },
        {
            "buffer" : 0,
            "byteLength" : 356808,
            "byteOffset" : 7442960
        },
        {
            "buffer" : 0,
            "byteLength" : 184128,
            "byteOffset" : 7799768
        },
        {
            "buffer" : 0,
            "byteLength" : 184128,
            "byteOffset" : 7983896
        },
        {
            "buffer" : 0,
            "byteLength" : 122752,
            "byteOffset" : 8168024
        },
        {
            "buffer" : 0,
            "byteLength" : 122752,
            "byteOffset" : 8290776
        },
        {
            "buffer" : 0,
            "byteLength" : 35256,
            "byteOffset" : 8413528
        },
        {
            "buffer" : 0,
            "byteLength" : 1280,
            "byteOffset" : 8448784
        },
        {
            "buffer" : 0,
            "byteLength" : 3840,
            "byteOffset" : 8450064
        },
        {
            "buffer" : 0,
            "byteLength" : 5120,
            "byteOffset" : 8453904
        },
        {
            "buffer" : 0,
            "byteLength" : 3840,
            "byteOffset" : 8459024
        }
    ],
    "samplers" : [
        {
            "magFilter" : 9729,
            "minFilter" : 9987
        }
    ],
    "buffers" : [
        {
            "byteLength" : 8462864,
            "uri" : "Luta_livre_final.bin"
        }
    ]
}
